<?xml version="1.0" encoding="utf-8"?>
<!-- Generator: Adobe Illustrator 21.1.0, SVG Export Plug-In . SVG Version: 6.00 Build 0)  -->
<svg version="1.1" id="Layer_1" xmlns="http://www.w3.org/2000/svg" xmlns:xlink="http://www.w3.org/1999/xlink" x="0px" y="0px"
	 viewBox="0 0 270 163" style="enable-background:new 0 0 270 163;" xml:space="preserve">
<style type="text/css">
	.st0{fill:#2698ED;}
	.st1{fill:#3A20BA;}
</style>
<title>Artboard 2</title>
<path class="st0" d="M47,19.6h10.9l-0.7,6.4l0.2,0c2.6-4.8,6.7-7.1,12.3-7.1c8,0,12,5,12,15.1l0,3.2H71.5c0.2-1.2,0.2-2,0.2-2.4
	c0-4.8-1.9-7.2-5.7-7.2c-5.4,0-8.1,3.6-8.1,10.8v26.9H47V19.6z"/>
<path class="st0" d="M125.9,19.6v45.5H115l0.6-7.8l-0.2,0c-2.1,5.6-7,8.4-14.7,8.4c-10.3,0-15.5-5.2-15.5-15.5V19.6h10.9v28
	c0,3.9,0.5,6.4,1.6,7.6c1.1,1.2,3.3,1.8,6.7,1.8c7,0,10.5-4.2,10.5-12.5V19.6H125.9z"/>
<path class="st0" d="M132,19.6h10.8l-0.4,7.7l0.2,0c2.1-5.5,6.9-8.2,14.3-8.2c10.8,0,16.2,5,16.2,15v31h-10.9V35.9l-0.2-3.2
	c-0.5-3.4-3.2-5.1-8-5.1c-7.4,0-11,3.5-11,10.4v27H132V19.6z"/>
<path class="st0" d="M218.9,19.6l-12,48.4c-1.7,6.9-3.8,11.5-6.3,13.8s-6.5,3.5-12,3.5c-1.2,0-7.1-0.1-8.4-0.2v-8
	c1,0.1,6.3,0.1,6.9,0.1c4.6,0,7.6-4,8.8-12.1h-5.6l-14.9-45.5h11.7l5.7,19.3l2.9,9.7c0.2,0.6,0.6,2.3,1.3,4.9l1.4,4.8h0.2l1-4.8
	c0.5-2.5,0.8-4.1,1-4.9l2.2-9.7l4.4-19.3L218.9,19.6z"/>
<path class="st0" d="M15.7,63.6c0.1,0,0.5-1.1,0.5-1.2c0.2-0.5,0.3-1,0.4-1.5c0.2-1.2,0.2-2.4,0.4-3.6c0.1-0.9,0.4-1.9,0.7-2.8
	c0.1-0.4,0.3-0.9,0.6-1.2c2.1-2.9,8.3-1.3,11.2-0.8c3.6,0.7,3.3-0.1,3.3-0.1c2.8,0.7,2.6-1.9,2.6-1.9c0.8-0.7,1-1.9,0.3-2.8
	c-0.2-0.3-0.5-0.5-0.8-0.6c-0.7-0.6-1.4-1.2-2-1.9c-0.6-0.2-3.3-4.4-3.3-4.4c-0.8-1.2-1.8-2.2-2.9-3c-0.7-0.4-1.4-0.8-2.1-1.3
	c1.7-3.3,0.6-8.1-1.3-8.7c-0.9-0.5-2-0.1-2.5,0.8c-0.1,0.2-0.1,0.3-0.2,0.5c0,0.1,0,0.2,0,0.2c-0.7-0.9-1.9-1.4-3-1.4
	c0,0-4.9,0.5-2.5,9.4c0,0,0.5,3.6-2.2,3.3c0,0-1.1,0.3-4-1.5c0,0-5.3-4.9-8.8-3.5V0h10.9v26l0.2,0.1C13,21.4,17.7,19,25.4,19
	c6.5,0,11,1.6,13.5,4.8s3.6,9.1,3.7,17.7c0,9.4-1.2,15.8-3.7,19.1c-2.5,3.3-7.2,5-14.2,5C21.5,65.7,18.4,65,15.7,63.6"/>
<rect x="47" y="68.5" class="st0" width="10.9" height="9.1"/>
<rect x="47" y="87.9" class="st0" width="11" height="45.6"/>
<path class="st0" d="M106.2,100.5H95.5c-0.1-0.4-0.1-0.7-0.1-0.8c-0.2-2.2-0.9-3.5-1.9-4c-1-0.5-3.5-0.8-7.5-0.8
	c-5.7,0-8.5,1.8-8.5,5.5c0,2.5,0.5,4,1.5,4.5s4.4,0.9,10.2,1.1c7.8,0.4,12.9,1.4,15.2,3.1c2.4,1.7,3.5,5.1,3.5,10.3
	c0,5.6-1.6,9.4-4.7,11.5s-8.7,3.2-16.8,3.2c-7.8,0-13.1-1-16-2.9s-4.3-5.6-4.3-10.9l0-1.1h11.3c-0.1,0.5-0.2,1-0.2,1.5
	c-0.4,4,2.7,6,9.3,6c6.9,0,10.3-2,10.3-6c0-3.8-2.2-5.8-6.5-5.8c-9.8,0-16.2-0.9-19.3-2.8c-3.1-1.8-4.7-5.7-4.7-11.5
	c0-5.2,1.4-8.7,4.2-10.6c2.8-1.8,8.3-2.8,16.3-2.8c7.6,0,12.7,0.9,15.3,2.7S106.2,95.3,106.2,100.5"/>
<path class="st0" d="M150.2,113.2c-6.2,0-9.2,2.1-9.2,6.3c0,2.9,0.6,4.8,1.9,5.8s3.9,1.4,8,1.4c6.6,0,9.9-2.2,9.9-6.6
	C160.8,115.5,157.3,113.2,150.2,113.2 M142.9,101.1h-11.2c0-5.4,1.3-9.1,3.8-10.9c2.5-1.8,7.6-2.8,15.1-2.8c8.2,0,13.8,1.1,16.7,3.4
	c2.9,2.3,4.3,6.5,4.3,12.9v29.8h-11l0.5-6.3l-0.3,0c-2.1,4.5-6.9,6.8-14.5,6.8c-11,0-16.5-4.7-16.5-14c0-9.5,5.6-14.2,16.9-14.2
	c7.5,0,12.1,1.7,13.7,5.2h0.2v-7.4c0-3.5-0.6-5.8-1.9-7s-3.8-1.7-7.6-1.7C145.7,94.8,142.9,96.9,142.9,101.1"/>
<path class="st0" d="M180.1,87.9H191l-0.4,7.7l0.2,0.1c2.1-5.5,6.9-8.2,14.3-8.2c10.7,0,16.1,5,16.1,15v31.1h-11v-29.2l-0.2-3.2
	c-0.5-3.4-3.2-5.1-7.9-5.1c-7.3,0-10.9,3.5-10.9,10.4v27.1h-11V87.9z"/>
<path class="st0" d="M270,116.5v17h-8.1l0,0c0.1-0.2,0.1-0.3,0.1-0.5c0.6-2.2-0.2-4.2-0.5-6.4c-0.4-3-1.2-6-2.5-8.8
	c0.8,1.7,4.4-0.6,5.3-1c1.8-0.7,3.8-0.9,5.7-0.6"/>
<path class="st0" d="M270,114.1c-1.2-0.7-2.6-0.9-4-0.7c0,0-7.6,1.7-8.9,0.6c-0.4-0.4-0.7-1.9-1-2.5c-0.7-1.2-2-2.1-2.5-3.3
	c-0.1-0.5-0.1-1,0-1.6c-0.3-2.8-1.4-6.1-4.7-7.2c-5.1-1.7-6.9-1-7.5-0.5c0,0-3.6-1.8-5.3-0.3c1,0.8,2.2,1.4,3.4,1.9
	c2,1.1,1.3,3.9,3.3,5.1c2.2,1.3,0.8,5.9,0.7,7.6c-0.1,1.6,1.3,3.4-0.8,4.2c-0.9,0.3-2.1,0.3-3.1,0.6c-0.9,0.4-1.8,0.8-2.6,1.3
	c-1.6,0.8-2.4,2.7-1.7,4.4c0,0,0.5,1.4,1.7,0.3c0,0,3.2-2.7,6.3-2.1c0.6,0.1,1.2,0.1,1.7-0.2c-0.7,0.3,0.7,3.8,0.8,4.3
	c0.5,1.8,0.5,3.7,0.2,5.5c-0.2,0.9-0.2,1.8-0.1,2.6c0,0,0,0,0,0.1l0,0h-0.2c-7.2,0-12-1.6-14.3-4.9c-2.3-3.3-3.5-10-3.5-20.1
	c0-8.1,1.3-13.8,3.8-17c2.5-3.2,7-4.8,13.4-4.7c7.4,0,12.1,2.3,13.9,7l0.2,0v-26h11L270,114.1"/>
<rect x="115" y="68.5" class="st0" width="10.9" height="65"/>
<path class="st1" d="M259.2,156.3l2.4-7.1h0l2.3,7.1H259.2z M257,162.6l1.2-3.5h6.6l1.2,3.5h3.6l-5.8-16.6h-4.2l-6,16.6L257,162.6z
	 M237.6,146h-3.6v16.6h3.6V146z M217,162.6V146h-3.3v13l0,0l-6.3-13.1H202v16.6h3.3v-13.8l0,0l6.6,13.8L217,162.6z M175.5,156.3
	l2.4-7.1h0l2.3,7.1H175.5z M173.3,162.6l1.2-3.5h6.6l1.2,3.5h3.6l-5.8-16.6h-4.2l-6,16.6H173.3z M150.4,148.3L150.4,148.3l0,14.3
	h3.3V146h-5.6l-3.8,12.1h0l-3.5-12.1H135v16.6h3.3v-14.2l0,0l4.4,14.3h3L150.4,148.3z M117.9,150.7c0-3.3-2.5-5.1-5.7-5.1
	c-3.4,0-6.9,1.7-6.9,5.5c0,2.9,3.2,4,5.5,4.6c1.4,0.4,3.8,0.5,3.8,2.5c0,1.8-1.9,2.2-3.3,2.2c-1.4,0.1-2.7-1-2.8-2.4
	c0-0.2,0-0.4,0-0.7h-3.6c-0.1,4.2,2.6,5.7,6.4,5.7c3.6,0,7.2-1.4,7.2-5.5c0-3.3-3.7-4-6.3-4.7c-1.4-0.3-3-0.6-3-2.4
	c0-1.4,1.3-2.1,2.6-2.1c1.3-0.2,2.6,0.8,2.7,2.1c0,0.1,0,0.3,0,0.4L117.9,150.7z M79,156.3l2.4-7.1h0l2.3,7.1H79z M76.8,162.6
	l1.2-3.5h6.6l1.2,3.5h3.6L83.7,146h-4.2l-6,16.6L76.8,162.6z M46.4,148.8h4.9v13.9h3.6v-13.9h4.9V146H46.4V148.8z"/>
</svg>
